<svg width="22" height="17" viewBox="0 0 22 17" fill="none" xmlns="http://www.w3.org/2000/svg">
<path d="M1 3.5L9.16492 9.21544C9.82609 9.67826 10.1567 9.90967 10.5163 9.99931C10.8339 10.0785 11.1661 10.0785 11.4837 9.99931C11.8433 9.90967 12.1739 9.67826 12.8351 9.21544L21 3.5M5.8 16.5H16.2C17.8802 16.5 18.7202 16.5 19.362 16.173C19.9265 15.8854 20.3854 15.4265 20.673 14.862C21 14.2202 21 13.3802 21 11.7V5.3C21 3.61984 21 2.77976 20.673 2.13803C20.3854 1.57354 19.9265 1.1146 19.362 0.82698C18.7202 0.5 17.8802 0.5 16.2 0.5H5.8C4.11984 0.5 3.27976 0.5 2.63803 0.82698C2.07354 1.1146 1.6146 1.57354 1.32698 2.13803C1 2.77976 1 3.61984 1 5.3V11.7C1 13.3802 1 14.2202 1.32698 14.862C1.6146 15.4265 2.07354 15.8854 2.63803 16.173C3.27976 16.5 4.11984 16.5 5.8 16.5Z" stroke="#757575" stroke-linecap="round" stroke-linejoin="round"/>
</svg>
